<svg width="137" height="45" viewBox="0 0 137 45" fill="none" xmlns="http://www.w3.org/2000/svg">
<rect width="136.364" height="45" fill="black" fill-opacity="0"/>
<rect width="136.364" height="45" fill="black" fill-opacity="0"/>
<rect width="136.364" height="45" fill="black" fill-opacity="0"/>
<rect width="136.364" height="45" fill="black" fill-opacity="0"/>
<path d="M125.504 0.00014625H10.8653C10.4474 0.00014625 10.0345 0.00014625 9.61778 0.00239624C9.2689 0.00464624 8.92281 0.0111825 8.57058 0.0166837C7.80539 0.0255732 7.04199 0.0920317 6.28703 0.215482C5.53313 0.341619 4.80285 0.579425 4.12088 0.920855C3.43974 1.26517 2.81737 1.71258 2.27634 2.24684C1.73247 2.7796 1.27911 3.3954 0.933693 4.07056C0.587326 4.74438 0.347154 5.46643 0.221472 6.21179C0.0945954 6.95621 0.0263218 7.70921 0.0172642 8.46403C0.00668918 8.80896 0.00557242 9.15503 0 9.5V35.5035C0.00557242 35.8528 0.00668918 36.1912 0.0172642 36.5406C0.0263246 37.2954 0.0945982 38.0483 0.221472 38.7927C0.346807 39.5385 0.586993 40.261 0.933693 40.9351C1.27895 41.608 1.73237 42.2213 2.27634 42.7511C2.81532 43.2878 3.43809 43.7355 4.12088 44.0772C4.80284 44.4195 5.53305 44.6587 6.28703 44.7868C7.04212 44.9093 7.80544 44.9758 8.57058 44.9857C8.92281 44.9934 9.2689 44.9978 9.61778 44.9978C10.0345 45 10.4474 45 10.8653 45H125.504C125.914 45 126.33 45 126.74 44.9978C127.087 44.9978 127.443 44.9934 127.79 44.9857C128.554 44.9763 129.316 44.9098 130.069 44.7868C130.826 44.6578 131.559 44.4187 132.244 44.0772C132.926 43.7353 133.548 43.2876 134.087 42.7511C134.629 42.2193 135.084 41.6064 135.433 40.9351C135.777 40.2605 136.015 39.5381 136.139 38.7927C136.266 38.0482 136.337 37.2954 136.35 36.5406C136.355 36.1912 136.355 35.8528 136.355 35.5035C136.364 35.0947 136.364 34.6883 136.364 34.2729V10.7283C136.364 10.3163 136.364 9.90758 136.355 9.5C136.355 9.15503 136.355 8.80896 136.35 8.46399C136.337 7.7091 136.266 6.95626 136.139 6.21175C136.015 5.46682 135.777 4.74482 135.433 4.07052C134.73 2.71723 133.614 1.61567 132.244 0.920753C131.559 0.580158 130.826 0.342416 130.069 0.215381C129.316 0.0913866 128.554 0.0249049 127.79 0.0165262C127.443 0.0110362 127.087 0.00444374 126.74 0.00224999C126.33 0 125.914 0 125.504 0V0.00014625Z" fill="#A6A6A6"/>
<path d="M9.62264 44.0155C9.27544 44.0155 8.93663 44.0111 8.59215 44.0035C7.87854 43.9943 7.1666 43.9329 6.46216 43.82C5.80531 43.7083 5.169 43.5005 4.57422 43.2036C3.98489 42.9091 3.44737 42.5229 2.98226 42.0599C2.51042 41.6023 2.11759 41.0716 1.81934 40.4888C1.5178 39.9023 1.30912 39.2735 1.20056 38.6245C1.08333 37.9271 1.0199 37.222 1.01082 36.5151C1.0036 36.2779 0.994141 35.4879 0.994141 35.4879V9.49986C0.994141 9.49986 1.00421 8.72202 1.01088 8.4935C1.01957 7.78777 1.08263 7.08372 1.19951 6.38743C1.30827 5.73664 1.51711 5.10608 1.81881 4.51757C2.11597 3.93518 2.50662 3.40409 2.97562 2.94488C3.44409 2.48132 3.98333 2.09318 4.57366 1.79461C5.16708 1.4986 5.80219 1.29232 6.45771 1.18268C7.16446 1.06857 7.87887 1.00687 8.59495 0.998111L9.62319 0.984375H126.733L127.774 0.998662C128.484 1.00699 129.191 1.06813 129.892 1.18158C130.554 1.2926 131.196 1.50032 131.796 1.7979C132.978 2.3996 133.941 3.35155 134.548 4.52032C134.845 5.10476 135.05 5.73018 135.158 6.37535C135.276 7.07735 135.342 7.78693 135.356 8.49845C135.359 8.81705 135.359 9.15927 135.359 9.49986C135.368 9.92173 135.368 10.3233 135.368 10.7281V34.2728C135.368 34.6815 135.368 35.0803 135.359 35.4824C135.359 35.8482 135.359 36.1834 135.355 36.5283C135.341 37.2271 135.276 37.924 135.16 38.6135C135.054 39.2672 134.846 39.9008 134.545 40.4922C134.244 41.0687 133.854 41.5948 133.387 42.0511C132.922 42.5166 132.383 42.9051 131.793 43.2014C131.194 43.5007 130.553 43.7092 129.892 43.82C129.187 43.9335 128.475 43.9949 127.762 44.0035C127.428 44.0111 127.078 44.0155 126.739 44.0155L125.504 44.0177L9.62264 44.0155Z" fill="black"/>
<rect width="113.402" height="27.8658" fill="black" fill-opacity="0" transform="translate(11.3633 9.8125)"/>
<rect width="20.189" height="24.4972" fill="black" fill-opacity="0" transform="translate(11.3633 9.8125)"/>
<rect width="20.189" height="24.4972" fill="black" fill-opacity="0" transform="translate(11.3633 9.8125)"/>
<path d="M28.2256 22.8393C28.2379 21.9003 28.4905 20.9796 28.96 20.163C29.4296 19.3463 30.1007 18.6601 30.911 18.1683C30.3963 17.4425 29.7171 16.8452 28.9276 16.4238C28.1381 16.0024 27.26 15.7686 26.3629 15.7409C24.4493 15.5426 22.5942 16.8713 21.6191 16.8713C20.6251 16.8713 19.1237 15.7606 17.507 15.7934C16.4612 15.8268 15.4421 16.127 14.5488 16.6648C13.6555 17.2026 12.9186 17.9597 12.4098 18.8622C10.2059 22.6292 11.8499 28.1654 13.961 31.2103C15.0173 32.7013 16.2517 34.3668 17.867 34.3078C19.4476 34.243 20.0379 33.3127 21.9459 33.3127C23.8361 33.3127 24.39 34.3078 26.038 34.2702C27.7341 34.243 28.8027 32.7726 29.8219 31.2674C30.5808 30.205 31.1648 29.0308 31.5522 27.7884C30.5669 27.3769 29.726 26.6882 29.1344 25.8081C28.5428 24.9281 28.2268 23.8955 28.2256 22.8393Z" fill="white"/>
<path d="M25.1117 13.7394C26.0365 12.6435 26.4921 11.2348 26.3818 9.8125C24.9689 9.959 23.6639 10.6256 22.7266 11.6796C22.2683 12.1944 21.9173 12.7934 21.6937 13.4423C21.4701 14.0911 21.3782 14.7772 21.4233 15.4611C22.1299 15.4683 22.8291 15.3171 23.468 15.0189C24.1069 14.7206 24.6689 14.2832 25.1117 13.7394Z" fill="white"/>
<rect width="85.5353" height="17.5718" fill="black" fill-opacity="0" transform="translate(39.2305 20.1064)"/>
<path d="M48.2045 30.535H42.8105L41.5151 34.311H39.2305L44.3395 20.3408H46.7132L51.8223 34.311H49.4987L48.2045 30.535ZM43.3691 28.7926H47.6447L45.537 22.6644H45.478L43.3691 28.7926Z" fill="white"/>
<path d="M62.8552 29.2163C62.8552 32.3815 61.1392 34.4151 58.5496 34.4151C57.8936 34.4489 57.2413 34.2998 56.6672 33.9846C56.0931 33.6694 55.6205 33.2011 55.3035 32.6331H55.2545V37.678H53.1367V24.1231H55.1866V25.8172H55.2256C55.5571 25.2519 56.0377 24.7859 56.6162 24.4689C57.1946 24.1518 57.8494 23.9955 58.5107 24.0165C61.1292 24.0165 62.8552 26.06 62.8552 29.2163ZM60.6785 29.2163C60.6785 27.1542 59.599 25.7985 57.952 25.7985C56.334 25.7985 55.2456 27.1828 55.2456 29.2163C55.2456 31.2686 56.334 32.643 57.952 32.643C59.599 32.643 60.6785 31.2972 60.6785 29.2163Z" fill="white"/>
<path d="M74.2127 29.2163C74.2127 32.3815 72.4966 34.415 69.9071 34.415C69.2511 34.4489 68.5987 34.2997 68.0246 33.9846C67.4505 33.6694 66.9779 33.201 66.6609 32.6331H66.6119V37.678H64.4941V24.1231H66.544V25.8172H66.5829C66.9145 25.2519 67.3951 24.7859 67.9736 24.4689C68.552 24.1518 69.2068 23.9955 69.8681 24.0165C72.4866 24.0165 74.2127 26.06 74.2127 29.2163ZM72.0359 29.2163C72.0359 27.1542 70.9565 25.7985 69.3094 25.7985C67.6914 25.7985 66.603 27.1828 66.603 29.2163C66.603 31.2686 67.6914 32.643 69.3094 32.643C70.9565 32.643 72.0359 31.2971 72.0359 29.2163H72.0359Z" fill="white"/>
<path d="M81.7186 30.4171C81.8756 31.8025 83.2388 32.7121 85.1017 32.7121C86.8867 32.7121 88.1709 31.8025 88.1709 30.5533C88.1709 29.469 87.3964 28.8197 85.5624 28.3747L83.7284 27.9386C81.13 27.319 79.9236 26.1192 79.9236 24.1725C79.9236 21.7621 82.0514 20.1064 85.0728 20.1064C88.0629 20.1064 90.1128 21.7621 90.1818 24.1725H88.044C87.9161 22.7783 86.7487 21.9368 85.0427 21.9368C83.3367 21.9368 82.1693 22.7882 82.1693 24.0275C82.1693 25.0151 82.9149 25.5963 84.7389 26.0412L86.298 26.4191C89.2014 27.097 90.4077 28.2484 90.4077 30.2918C90.4077 32.9054 88.2989 34.5424 84.9447 34.5424C81.8065 34.5424 79.6877 32.9439 79.5508 30.417L81.7186 30.4171Z" fill="white"/>
<path d="M94.9755 21.7139V24.1243H96.9375V25.7799H94.9755V31.395C94.9755 32.2673 95.3684 32.6738 96.2308 32.6738C96.4637 32.6698 96.6963 32.6536 96.9275 32.6254V34.2712C96.5397 34.3427 96.1456 34.3751 95.7512 34.3678C93.6624 34.3678 92.8478 33.5933 92.8478 31.618V25.7799H91.3477V24.1243H92.8477V21.7139H94.9755Z" fill="white"/>
<path d="M98.0781 29.2175C98.0781 26.0128 99.99 23.999 102.971 23.999C105.963 23.999 107.866 26.0128 107.866 29.2175C107.866 32.431 105.973 34.436 102.971 34.436C99.971 34.436 98.0781 32.431 98.0781 29.2175ZM105.708 29.2175C105.708 27.0192 104.687 25.7217 102.971 25.7217C101.255 25.7217 100.236 27.029 100.236 29.2175C100.236 31.4247 101.255 32.7123 102.971 32.7123C104.687 32.7123 105.708 31.4247 105.708 29.2175H105.708Z" fill="white"/>
<path d="M109.607 24.123H111.627V25.8566H111.676C111.813 25.3152 112.134 24.8367 112.586 24.5016C113.038 24.1664 113.593 23.9951 114.158 24.0164C114.402 24.0156 114.645 24.0417 114.883 24.0944V26.05C114.575 25.957 114.254 25.9144 113.932 25.9236C113.624 25.9113 113.318 25.9649 113.033 26.0806C112.748 26.1964 112.492 26.3716 112.283 26.5942C112.073 26.8168 111.915 27.0816 111.818 27.3704C111.722 27.6591 111.69 27.965 111.725 28.267V34.3084H109.607L109.607 24.123Z" fill="white"/>
<path d="M124.649 31.3181C124.364 33.1671 122.54 34.436 120.206 34.436C117.205 34.436 115.342 32.4508 115.342 29.2659C115.342 26.071 117.215 23.999 120.117 23.999C122.971 23.999 124.766 25.9348 124.766 29.0231V29.7394H117.48V29.8657C117.446 30.2405 117.493 30.6182 117.619 30.9735C117.745 31.3288 117.945 31.6537 118.208 31.9266C118.47 32.1994 118.789 32.414 119.142 32.5561C119.495 32.6982 119.874 32.7645 120.255 32.7507C120.755 32.797 121.258 32.6826 121.687 32.4244C122.116 32.1663 122.45 31.7783 122.638 31.3181L124.649 31.3181ZM117.49 28.2782H122.648C122.667 27.9411 122.615 27.6039 122.496 27.2875C122.376 26.9711 122.192 26.6825 121.954 26.4398C121.717 26.1971 121.431 26.0054 121.115 25.8769C120.799 25.7484 120.459 25.6859 120.117 25.6931C119.772 25.6911 119.43 25.7565 119.111 25.8856C118.792 26.0147 118.502 26.2049 118.258 26.4452C118.013 26.6855 117.82 26.9712 117.688 27.2859C117.556 27.6005 117.489 27.9377 117.49 28.2782V28.2782Z" fill="white"/>
<rect width="78.7927" height="7.15373" fill="black" fill-opacity="0" transform="translate(40.6484 9.49219)"/>
<rect width="78.7927" height="7.15373" fill="black" fill-opacity="0" transform="translate(40.6484 9.49219)"/>
<path d="M43.1045 9.82305C43.5485 9.79159 43.994 9.85781 44.4089 10.0169C44.8238 10.176 45.1978 10.4241 45.5039 10.7431C45.81 11.0622 46.0405 11.4444 46.1788 11.8621C46.3172 12.2797 46.3599 12.7225 46.3039 13.1585C46.3039 15.303 45.1299 16.5357 43.1045 16.5357H40.6484V9.82305H43.1045ZM41.7045 15.5864H42.9865C43.3038 15.6051 43.6213 15.5538 43.9159 15.4361C44.2105 15.3184 44.4748 15.1373 44.6896 14.9061C44.9044 14.6748 45.0643 14.3992 45.1576 14.0992C45.2509 13.7993 45.2752 13.4826 45.2289 13.1722C45.2719 12.863 45.245 12.5482 45.1503 12.2505C45.0556 11.9527 44.8953 11.6794 44.681 11.4499C44.4667 11.2205 44.2037 11.0407 43.9107 10.9235C43.6178 10.8062 43.3022 10.7544 42.9865 10.7717H41.7045V15.5864Z" fill="white"/>
<path d="M47.4958 14.0005C47.4636 13.6676 47.5021 13.3317 47.6091 13.0144C47.716 12.697 47.8889 12.4053 48.1168 12.1578C48.3446 11.9103 48.6224 11.7126 48.9321 11.5773C49.2419 11.442 49.577 11.3721 49.9157 11.3721C50.2545 11.3721 50.5895 11.442 50.8993 11.5773C51.2091 11.7126 51.4868 11.9103 51.7146 12.1578C51.9425 12.4053 52.1154 12.697 52.2223 13.0144C52.3293 13.3317 52.3678 13.6676 52.3356 14.0005C52.3685 14.3337 52.3303 14.6701 52.2237 14.9879C52.117 15.3058 51.9442 15.5981 51.7163 15.846C51.4884 16.094 51.2105 16.2921 50.9004 16.4277C50.5903 16.5633 50.2549 16.6334 49.9157 16.6334C49.5765 16.6334 49.2411 16.5633 48.931 16.4277C48.6209 16.2921 48.343 16.094 48.1151 15.846C47.8872 15.5981 47.7144 15.3058 47.6077 14.9879C47.5011 14.6701 47.4629 14.3337 47.4958 14.0005ZM51.294 14.0005C51.294 12.9024 50.7943 12.2603 49.9174 12.2603C49.0371 12.2603 48.5419 12.9024 48.5419 14.0005C48.5419 15.1074 49.0371 15.7446 49.9174 15.7446C50.7943 15.7446 51.294 15.103 51.294 14.0005H51.294Z" fill="white"/>
<path d="M58.7725 16.5355H57.722L56.6615 12.8046H56.5813L55.5253 16.5355H54.4847L53.0703 11.4697H54.0975L55.0167 15.3352H55.0924L56.1473 11.4697H57.1189L58.1738 15.3352H58.254L59.1687 11.4697H60.1814L58.7725 16.5355Z" fill="white"/>
<path d="M61.3672 11.469H62.342V12.2737H62.4177C62.5461 11.9847 62.7626 11.7424 63.0371 11.5806C63.3116 11.4188 63.6304 11.3456 63.949 11.3712C64.1987 11.3527 64.4494 11.3898 64.6825 11.4799C64.9157 11.57 65.1253 11.7108 65.2959 11.8917C65.4664 12.0727 65.5936 12.2892 65.6679 12.5252C65.7422 12.7613 65.7617 13.0108 65.7251 13.2553V16.5347H64.7124V13.5064C64.7124 12.6923 64.3541 12.2875 63.6051 12.2875C63.4356 12.2797 63.2664 12.3082 63.1091 12.371C62.9517 12.4338 62.81 12.5294 62.6937 12.6514C62.5773 12.7733 62.489 12.9186 62.4348 13.0774C62.3807 13.2362 62.3619 13.4046 62.3799 13.5712V16.5348H61.3672L61.3672 11.469Z" fill="white"/>
<path d="M67.3379 9.49219H68.3506V16.5355H67.3379V9.49219Z" fill="white"/>
<path d="M69.7614 14.0006C69.7292 13.6677 69.7678 13.3317 69.8747 13.0144C69.9817 12.6971 70.1547 12.4053 70.3825 12.1578C70.6104 11.9103 70.8882 11.7126 71.198 11.5773C71.5078 11.442 71.8428 11.3721 72.1816 11.3721C72.5204 11.3721 72.8554 11.442 73.1652 11.5773C73.475 11.7126 73.7528 11.9103 73.9806 12.1578C74.2085 12.4053 74.3815 12.6971 74.4884 13.0144C74.5954 13.3317 74.634 13.6677 74.6017 14.0006C74.6346 14.3338 74.5964 14.6702 74.4897 14.988C74.383 15.3059 74.2102 15.5982 73.9823 15.8461C73.7543 16.0941 73.4764 16.2922 73.1663 16.4278C72.8562 16.5634 72.5208 16.6335 72.1816 16.6335C71.8424 16.6335 71.507 16.5634 71.1969 16.4278C70.8868 16.2922 70.6088 16.0941 70.3809 15.8461C70.153 15.5982 69.9801 15.3059 69.8734 14.988C69.7667 14.6702 69.7286 14.3338 69.7614 14.0006ZM73.5596 14.0006C73.5596 12.9025 73.0599 12.2604 72.183 12.2604C71.3027 12.2604 70.8075 12.9025 70.8075 14.0006C70.8075 15.1075 71.3027 15.7447 72.183 15.7447C73.0599 15.7447 73.5596 15.1031 73.5596 14.0006H73.5596Z" fill="white"/>
<path d="M75.668 15.103C75.668 14.1911 76.3557 13.6655 77.5765 13.5907L78.9664 13.5116V13.0744C78.9664 12.5394 78.6081 12.2372 77.9159 12.2372C77.3506 12.2372 76.9589 12.4421 76.8465 12.8003H75.8661C75.9695 11.9302 76.7986 11.3721 77.9627 11.3721C79.2491 11.3721 79.9747 12.0043 79.9747 13.0744V16.5356H78.9998V15.8237H78.9197C78.7571 16.0791 78.5287 16.2873 78.2579 16.427C77.9871 16.5667 77.6836 16.633 77.3784 16.6191C77.163 16.6412 76.9453 16.6185 76.7393 16.5525C76.5333 16.4864 76.3436 16.3785 76.1825 16.2357C76.0213 16.0929 75.8923 15.9183 75.8037 15.7232C75.715 15.5281 75.6688 15.3168 75.668 15.103ZM78.9664 14.6701V14.2466L77.7134 14.3257C77.0067 14.3724 76.6862 14.6097 76.6862 15.0563C76.6862 15.5122 77.0868 15.7776 77.6377 15.7776C77.7992 15.7937 77.9622 15.7776 78.1172 15.7302C78.2722 15.6829 78.4159 15.6052 78.5399 15.5019C78.6639 15.3986 78.7655 15.2717 78.8388 15.1288C78.9121 14.9859 78.9555 14.8299 78.9664 14.6701Z" fill="white"/>
<path d="M81.3066 14.0004C81.3066 12.3997 82.1402 11.3857 83.4366 11.3857C83.7573 11.3711 84.0756 11.4469 84.3542 11.6043C84.6329 11.7617 84.8604 11.9941 85.0102 12.2744H85.0859V9.49219H86.0986V16.5355H85.1282V15.7351H85.048C84.8867 16.0136 84.6512 16.2431 84.3672 16.3989C84.0831 16.5547 83.7613 16.6308 83.4366 16.619C82.1313 16.619 81.3066 15.605 81.3066 14.0004ZM82.3528 14.0004C82.3528 15.0749 82.8658 15.7214 83.7238 15.7214C84.5773 15.7214 85.1048 15.0656 85.1048 14.0048C85.1048 12.949 84.5718 12.2838 83.7238 12.2838C82.8713 12.2838 82.3527 12.9348 82.3527 14.0004H82.3528Z" fill="white"/>
<path d="M90.2868 14.0005C90.2546 13.6676 90.2932 13.3317 90.4001 13.0144C90.507 12.697 90.68 12.4053 90.9078 12.1578C91.1357 11.9103 91.4134 11.7126 91.7232 11.5773C92.0329 11.442 92.368 11.3721 92.7067 11.3721C93.0455 11.3721 93.3805 11.442 93.6903 11.5773C94.0001 11.7126 94.2778 11.9103 94.5056 12.1578C94.7335 12.4053 94.9064 12.697 95.0133 13.0144C95.1203 13.3317 95.1589 13.6676 95.1266 14.0005C95.1595 14.3337 95.1214 14.6701 95.0147 14.9879C94.908 15.3058 94.7352 15.5981 94.5073 15.846C94.2794 16.094 94.0015 16.2921 93.6914 16.4277C93.3813 16.5633 93.0459 16.6334 92.7067 16.6334C92.3676 16.6334 92.0322 16.5633 91.7221 16.4277C91.412 16.2921 91.134 16.094 90.9061 15.846C90.6782 15.5981 90.5054 15.3058 90.3987 14.9879C90.2921 14.6701 90.254 14.3337 90.2868 14.0005ZM94.085 14.0005C94.085 12.9024 93.5853 12.2603 92.7084 12.2603C91.8281 12.2603 91.3329 12.9024 91.3329 14.0005C91.3329 15.1074 91.8282 15.7446 92.7084 15.7446C93.5853 15.7446 94.085 15.103 94.085 14.0005Z" fill="white"/>
<path d="M96.4863 11.469H97.4612V12.2737H97.5369C97.6652 11.9847 97.8818 11.7424 98.1562 11.5806C98.4307 11.4188 98.7495 11.3456 99.0681 11.3712C99.3178 11.3527 99.5685 11.3898 99.8017 11.4799C100.035 11.57 100.244 11.7108 100.415 11.8917C100.586 12.0727 100.713 12.2892 100.787 12.5252C100.861 12.7613 100.881 13.0108 100.844 13.2553V16.5347H99.8316V13.5064C99.8316 12.6923 99.4732 12.2875 98.7243 12.2875C98.5548 12.2797 98.3855 12.3082 98.2282 12.371C98.0709 12.4338 97.9292 12.5294 97.8128 12.6514C97.6964 12.7733 97.6081 12.9186 97.554 13.0774C97.4998 13.2362 97.4811 13.4046 97.499 13.5712V16.5348H96.4863V11.469Z" fill="white"/>
<path d="M106.569 10.209V11.4933H107.68V12.3354H106.569V14.9402C106.569 15.4709 106.79 15.7032 107.294 15.7032C107.423 15.7028 107.552 15.6951 107.68 15.6802V16.5129C107.499 16.545 107.314 16.5621 107.13 16.564C106.003 16.564 105.555 16.1729 105.555 15.1962V12.3353H104.74V11.4932H105.555V10.209H106.569Z" fill="white"/>
<path d="M109.062 9.49219H110.066V12.2838H110.146C110.281 11.9921 110.503 11.7484 110.783 11.586C111.063 11.4236 111.387 11.3504 111.711 11.3763C111.959 11.363 112.208 11.4039 112.438 11.4962C112.669 11.5885 112.876 11.7299 113.045 11.9103C113.213 12.0907 113.34 12.3056 113.415 12.5398C113.49 12.7739 113.511 13.0215 113.478 13.2649V16.5355H112.465V13.5115C112.465 12.7024 112.083 12.2926 111.367 12.2926C111.193 12.2785 111.018 12.3021 110.854 12.3618C110.69 12.4215 110.542 12.5158 110.419 12.6381C110.296 12.7604 110.201 12.9078 110.142 13.07C110.082 13.2322 110.06 13.4051 110.075 13.5769V16.5355H109.063L109.062 9.49219Z" fill="white"/>
<path d="M119.379 15.1679C119.242 15.6309 118.944 16.0314 118.537 16.2993C118.131 16.5672 117.642 16.6855 117.156 16.6335C116.818 16.6423 116.482 16.5784 116.171 16.4461C115.861 16.3139 115.583 16.1166 115.358 15.8678C115.132 15.619 114.964 15.3248 114.865 15.0055C114.767 14.6862 114.739 14.3495 114.786 14.0188C114.741 13.687 114.768 13.3496 114.867 13.0293C114.965 12.7091 115.132 12.4135 115.357 12.1625C115.581 11.9115 115.857 11.7111 116.167 11.5747C116.477 11.4384 116.812 11.3693 117.151 11.3722C118.579 11.3722 119.441 12.3352 119.441 13.9259V14.2747H115.817V14.3308C115.801 14.5167 115.825 14.7038 115.887 14.8801C115.948 15.0565 116.047 15.2182 116.175 15.3548C116.304 15.4914 116.46 15.6 116.634 15.6736C116.807 15.7472 116.995 15.7841 117.184 15.782C117.426 15.8107 117.671 15.7677 117.889 15.6583C118.106 15.5489 118.286 15.3782 118.405 15.1679L119.379 15.1679ZM115.817 13.5354H118.409C118.422 13.3653 118.398 13.1946 118.34 13.034C118.282 12.8734 118.191 12.7267 118.072 12.6031C117.953 12.4795 117.809 12.3818 117.65 12.3164C117.49 12.2509 117.319 12.2191 117.146 12.223C116.971 12.2209 116.797 12.2533 116.635 12.3185C116.472 12.3837 116.325 12.4803 116.201 12.6026C116.077 12.7249 115.98 12.8704 115.914 13.0306C115.848 13.1908 115.815 13.3624 115.817 13.5354H115.817Z" fill="white"/>
</svg>
