<?xml version="1.0" encoding="utf-8"?>
<!-- Generator: Adobe Illustrator 22.1.0, SVG Export Plug-In . SVG Version: 6.00 Build 0)  -->
<svg version="1.1" xmlns="http://www.w3.org/2000/svg" xmlns:xlink="http://www.w3.org/1999/xlink" x="0px" y="0px"
	 viewBox="0 0 2884 2004" style="enable-background:new 0 0 2884 2004;" xml:space="preserve">
<g id="Layer_1">
	<g>
		<path d="M2824,1881.2h-34.2c-3.6,19.1-20.5,28.1-38.5,28.1h-2.2c-22.3,0-48.6-18.4-50.7-59.4h126v-19.8
			c0-46.8-29.5-79.2-76.3-79.2c-42.5,0-83.9,31-83.9,93.2c0,63,40.3,93.9,84.9,93.9C2786.5,1938.1,2818.2,1918.3,2824,1881.2
			 M2746.2,1779.8h3.6c20.1,0,38.9,11.9,40.3,43.2h-89.6C2707,1790.9,2727.9,1779.8,2746.2,1779.8 M2591.4,1934.5h34.2v-251.9h-34.2
			V1934.5z M2415.8,1844.5c0-43.2,25.2-64.8,50.4-64.8h3.6c27,0,48.6,21.6,48.6,64.8s-21.6,64.8-48.6,64.8h-3.6
			C2441,1909.3,2415.8,1887.7,2415.8,1844.5 M2552.5,1844.5c0-59.4-36-93.6-81-93.6c-25.2,0-46.8,12.6-55.8,28.8v-97.2h-34.2v251.9
			h34.2v-25.2c9,16.2,34.2,28.8,59.4,28.8C2520.2,1938.1,2552.5,1903.9,2552.5,1844.5 M2336.9,1934.5c-1.8-12.6-1.8-28.8-1.8-39.6
			v-75.6c0-36.7-25.2-68.4-73-68.4c-40.7,0-70.5,22.7-72.7,55.8h34.2c2.2-18,18.4-27,37.8-27h1.8c23.4,0,37.8,14.4,37.8,39.6v5.8
			l-49.7,4c-29.1,2.5-65.5,14.7-65.5,55.8c0,30.6,25.2,53.3,59.4,53.3c28.8,0,50.4-16.2,57.6-32.4c0,1.8,0,19.8,1.8,28.8H2336.9z
			 M2300.9,1851.4v18.4c0,21.6-27,39.6-48.6,39.6h-3.6c-16.6,0-28.8-11.2-28.8-25.9c0-16.6,15.1-26.6,36-28.4L2300.9,1851.4z
			 M2113.5,1934.5h34.2v-251.9h-34.2V1934.5z M2031.6,1934.5h34.2v-179.9h-34.2V1934.5z M2029.8,1722.2h37.8v-39.6h-37.8V1722.2z
			 M1987.2,1934.5c-1.8-12.6-1.8-28.8-1.8-39.6v-75.6c0-36.7-25.2-68.4-73-68.4c-40.7,0-70.5,22.7-72.7,55.8h34.2
			c2.2-18,18.4-27,37.8-27h1.8c23.4,0,37.8,14.4,37.8,39.6v5.8l-49.7,4c-29.2,2.5-65.5,14.7-65.5,55.8c0,30.6,25.2,53.3,59.4,53.3
			c28.8,0,50.4-16.2,57.6-32.4c0,1.8,0,19.8,1.8,28.8H1987.2z M1951.2,1851.4v18.4c0,21.6-27,39.6-48.6,39.6h-3.6
			c-16.6,0-28.8-11.2-28.8-25.9c0-16.6,15.1-26.6,36-28.4L1951.2,1851.4z M1756.6,1934.5l66.6-179.9h-34.9l-52.2,146.5l-52.2-146.5
			h-35.3l66.6,179.9H1756.6z M1631.5,1934.5c-1.8-12.6-1.8-28.8-1.8-39.6v-75.6c0-36.7-25.2-68.4-73-68.4
			c-40.7,0-70.5,22.7-72.7,55.8h34.2c2.2-18,18.4-27,37.8-27h1.8c23.4,0,37.8,14.4,37.8,39.6v5.8l-49.7,4
			c-29.2,2.5-65.5,14.7-65.5,55.8c0,30.6,25.2,53.3,59.4,53.3c28.8,0,50.4-16.2,57.6-32.4c0,1.8,0,19.8,1.8,28.8H1631.5z
			 M1595.5,1851.4v18.4c0,21.6-27,39.6-48.6,39.6h-3.6c-16.6,0-28.8-11.2-28.8-25.9c0-16.6,15.1-26.6,36-28.4L1595.5,1851.4z
			 M1321.5,1833.8c0-34.2,23.4-54,48.6-54h3.6c25.2,0,36,16.2,36,41.4v113.4h34.2V1814c0-37.8-23.4-63-64.8-63
			c-28.8,0-46.8,12.6-57.6,28.8v-25.2h-34.2v179.9h34.2V1833.8z M1239.3,1754.6h-34.2v97.2c0,36-22.3,57.6-45,57.6h-3.6
			c-24.1,0-36-14.4-36-43.2v-111.6h-34.2v118.8c0,37.8,20.9,64.8,61.2,64.8c31.3,0,50.8-18,57.6-37.8v34.2h34.2V1754.6z"/>
		<path d="M2506.5,1646.6h34.2v-150.4h45v-29.5h-45V1439c0-10.8,3.6-14.4,14.4-14.4h39.6v-29.9h-50.4c-25.2,0-37.8,12.6-37.8,37.8
			v34.2h-39.6v29.5h39.6V1646.6z M2403.9,1646.6h34.2v-251.9h-34.2V1646.6z M2363.8,1593.3h-34.2c-3.6,19.1-20.5,28.1-38.5,28.1
			h-2.2c-22.3,0-48.6-18.4-50.7-59.4h126v-19.8c0-46.8-29.5-79.2-76.3-79.2c-42.5,0-83.9,31-83.9,93.2c0,63,40.3,93.9,84.9,93.9
			C2326.3,1650.2,2358,1630.4,2363.8,1593.3 M2286,1491.8h3.6c20.2,0,38.9,11.9,40.3,43.2h-89.6
			C2246.8,1503,2267.7,1491.8,2286,1491.8 M2103.8,1650.2c41.7,0,70.9-21.6,70.9-54s-22.3-47.2-49.7-52.5l-28.4-5.8
			c-18-3.6-25.2-12.2-25.2-23c0-12.6,12.6-23,32.4-23h3.6c21.6,0,33.1,14.4,34.9,30.6h34.2c0-34.2-24.1-59.4-71.3-59.4
			c-36,0-68,19.4-68,55.4c0,30.6,23.4,45.7,52.5,51.5l26.3,5c18,3.6,24.5,11.5,24.5,23c0,14.4-14.8,23.4-33.1,23.4h-3.6
			c-20.9,0-37.4-10.4-39.6-30.6H2030C2031.8,1625,2055.9,1650.2,2103.8,1650.2 M1912.1,1646.6h34.2v-91c0-36,19.8-57.6,52.2-57.6
			h14.4v-33.1h-16.2c-23.4,0-45,14.4-52.2,41.4v-39.6h-32.4V1646.6z M1864.2,1466.7H1830v97.2c0,36-22.3,57.6-45,57.6h-3.6
			c-24.1,0-36-14.4-36-43.2v-111.6h-34.2v118.8c0,37.8,20.9,64.8,61.2,64.8c31.3,0,50.8-18,57.6-37.8v34.2h34.2V1466.7z
			 M1590.3,1621.4h-3.6c-28.8,0-50.4-23.4-50.4-64.8s21.6-64.8,50.4-64.8h3.6c28.8,0,50.4,23.4,50.4,64.8
			S1619.1,1621.4,1590.3,1621.4 M1588.5,1650.2c48.6,0,86.4-37.8,86.4-93.6c0-55.8-37.8-93.6-86.4-93.6c-48.6,0-86.4,37.8-86.4,93.6
			C1502.2,1612.4,1540,1650.2,1588.5,1650.2 M1362.1,1713.2c21.6,0,34.2-5.4,43.9-28.8l86-217.7h-35.3L1406,1598l-59.4-131.3h-36.4
			l78.8,174.9l-10.8,27.3c-4.3,11.2-9.7,13.7-21.6,13.7H1321v30.6H1362.1z"/>
		<path d="M2372.1,1305.4h-34.2c-3.6,19.1-20.5,28.1-38.5,28.1h-2.1c-22.3,0-48.6-18.4-50.8-59.4h126v-19.8
			c0-46.8-29.5-79.2-76.3-79.2c-42.5,0-83.8,31-83.8,93.2c0,63,40.3,93.9,84.9,93.9C2334.6,1362.3,2366.3,1342.5,2372.1,1305.4
			 M2294.3,1204h3.6c20.1,0,38.9,11.9,40.3,43.2h-89.6C2255.1,1215.1,2276,1204,2294.3,1204 M2164.4,1358.7h42.1l-78.5-108.3
			l74.9-71.6h-45l-79.2,77.7v-149.7h-34.2v251.9h34.2v-60.8l24.8-24.1L2164.4,1358.7z M1999.8,1358.7c-1.8-12.6-1.8-28.8-1.8-39.6
			v-75.6c0-36.7-25.2-68.4-73.1-68.4c-40.7,0-70.5,22.7-72.7,55.8h34.2c2.1-18,18.4-27,37.8-27h1.8c23.4,0,37.8,14.4,37.8,39.6v5.8
			l-49.7,4c-29.2,2.5-65.5,14.7-65.5,55.8c0,30.6,25.2,53.3,59.4,53.3c28.8,0,50.4-16.2,57.6-32.4c0,1.8,0,19.8,1.8,28.8H1999.8z
			 M1963.8,1275.6v18.4c0,21.6-27,39.6-48.6,39.6h-3.6c-16.5,0-28.8-11.2-28.8-25.9c0-16.6,15.1-26.6,36-28.4L1963.8,1275.6z
			 M1574.2,1257.9c0-34.2,23.4-54,45-54h3.6c25.2,0,36,16.2,36,41.4v113.4h34.2v-100.8c0-34.2,23.4-54,45-54h3.6
			c25.2,0,36,16.2,36,41.4v113.4h34.2v-120.6c0-37.8-23.4-63-64.8-63c-22,0-45.3,8.6-59.4,33.5c-11.9-23.4-33.5-33.5-59.4-33.5
			c-25.2,0-43.2,12.6-54,28.8v-25.2H1540v180h34.2V1257.9z"/>
	</g>
	<g>
		<path d="M1455.4,665c-25.2,4.2-161.2,27.2-189.9,31.6c-31.7,4.9-41,45.7-41,45.7l116.5-20.7c0,0,77.7-13,100-16.7
			c22.3-3.7,4,29.3,4,29.3s-62.5,18-88,25.4c-25.6,7.4-102.4,31.3-135,42.6c-32.6,11.2-31.5,16.6-50.2,39.4
			c-18.7,22.8-21.5,44-20.5,48.3c1,4.4,41.7-5.2,76.2-12.3c34.5-7.1,92.4-22.2,92.4-22.2c36.3-9.4,106.4-25,109.1-25.2
			c2.7-0.2,7-1.5,14,6.9c7.1,8.5-3.1,34.7-3.1,34.7c-3.8-4.3-21.6-2.5-21.6-2.5c-22.1,1.8-61.3,18.2-94.3,31.9
			c-33,13.7-92.9,28.8-109.9,33.7c-17,4.9-45.2,17.3-64.3,25.8c-19.1,8.4-34.7,18.6-34.7,18.6c-14.9,18-44,33.8-44,33.8
			s-47.5-50.8-51.8-57.8c-4.3-6.9,13.9-15,26.8-22.4c13-7.4,14.4-9.2,19.7-16c5.4-6.7,15.7-33.3,22.1-46.6
			c6.4-13.2,15.9-37.3,17.1-42.9c1.2-5.6-4.3-39.7-3-48.8c1.3-9.1,38.6-16.2,38.6-16.2l27.9-36.8l-25.8-15.1c0,0-3.7-11.5-7.7-26.9
			c-4-15.4,5.2-17.7,5.2-17.7c3.6-3.5,11.7-5.8,17.9-7.4c6.3-1.6,83.2-11,100.2-12.9c12.7-1.4,110.2-10.7,161.9-15.6L843.6,53.2
			L55.7,841.1l259.2,259.2l124.7-274.1c-15.5-20.3-134,66.2-146,74.3c-12,8.1-10.8,11.6-10.8,11.6c9.8,20.9,24.7,11.3,24.7,11.3
			c4.9,42.7-45.6,12.6-45.6,12.6c-26.6-37-39.6-36,30-93.2c69.6-57.1,154.2-78.9,162.3-82.1c8.1-3.3,14.9-7.9,14.9-7.9
			s10.4-29.1,13.4-36.6c3-7.5,5.5-11.8,12.1-10c6.6,1.9,22.8,26.1,30.8,30.1c8,4.1,80.5-1.7,91.7-1.7c11.3-0.1,18.4,0.3,24.7,6.7
			c6.4,6.5,35.9,31.1,53.7,71.6c17.8,40.4-55.1,121.1-102.8,169c-47.7,47.9-198.8,139.3-210.4,145.6c-11.2,6-15.3,13.3-19.1,20.7
			L843.6,1629l787.9-787.9L1455.4,665z M675.6,1116.4c0,0-35.5-5.3-25-50.5c10.5-45.2,39.6-169.7,90.9-286
			c51.2-116.3,48.3-103.2,58-109.2c9.7-6,14.9-12.1,22.9-1c8,11,20.6,40.8,23.4,41.8c2.8,0.9-5.2,9.3-5.2,9.3s-22.7,42.1-27.5,51.3
			c-4.8,9.2-61.5,118.6-90,219.5C694.5,1092.5,675.6,1116.4,675.6,1116.4z M808.8,968.1c-23.6-28-7.4-79.6-7.4-79.6
			c76.5-163.2,182.9-211.7,198-222.4c15.2-10.6,28.1-2.5,28.1-2.5c40,33.8,26,52.6,13.2,59.7c-12.9,7.1,14-11.8-61.9,28.4
			C902.8,792,849.4,894.1,844.8,917.6c-4.6,23.5-4.5,29.3,15.4,26.9c19.9-2.4,126.4-66.5,143.9-73.6c17.5-7.1,25.8,16.3,32.9,13.9
			c0,0,2.7-1.1,5.3,0.4c2.5,1.5,5.7,4.1,0,8.6c-62.8,46.6-146.2,87.5-166.7,96.2C847.6,1001.9,832.3,996.1,808.8,968.1z"/>
		<path d="M648.5,844.3c15.9-22.5,9.6-35.9,6.1-46.9c-3.6-11-14.6-12-14.6-12c-23.2-6.7-93.4-0.7-101.5,0.5
			c-8.1,1.2-24.6,12.8-31.8,18.1c-7.2,5.3-23.2,44.8-23.2,44.8l-85.4,210.3l67.2-40C567.8,950.2,632.6,866.8,648.5,844.3z"/>
	</g>
</g>
<g id="Isolation_Mode">
</g>
</svg>
