<svg width="152" height="45" viewBox="0 0 152 45" fill="none" xmlns="http://www.w3.org/2000/svg">
<rect width="151.364" height="44.9999" fill="black" fill-opacity="0"/>
<path d="M140.504 1.93563e-06H10.8653C10.4474 1.93563e-06 10.0345 1.93575e-06 9.61778 0.00225193C9.2689 0.00450192 8.92281 0.0110381 8.57058 0.0165394C7.80539 0.0254289 7.04199 0.0918874 6.28703 0.215337C5.53313 0.341475 4.80285 0.57928 4.12088 0.92071C3.43974 1.26503 2.81737 1.71243 2.27634 2.2467C1.73247 2.77946 1.27911 3.39526 0.933693 4.07042C0.587326 4.74423 0.347154 5.46629 0.221472 6.21165C0.0945954 6.95606 0.0263218 7.70906 0.0172642 8.46389C0.00668918 8.80881 0.00557242 9.15488 0 9.49985V35.5033C0.00557242 35.8526 0.00668918 36.191 0.0172642 36.5404C0.0263246 37.2952 0.0945982 38.0482 0.221472 38.7926C0.346807 39.5384 0.586993 40.2608 0.933693 40.9349C1.27895 41.6079 1.73237 42.2212 2.27634 42.751C2.81532 43.2876 3.43809 43.7353 4.12088 44.077C4.80284 44.4194 5.53305 44.6586 6.28703 44.7867C7.04212 44.9091 7.80544 44.9756 8.57058 44.9856C8.92281 44.9932 9.2689 44.9976 9.61778 44.9976C10.0345 44.9999 10.4474 44.9999 10.8653 44.9999H140.504C140.914 44.9999 141.33 44.9999 141.74 44.9976C142.087 44.9976 142.443 44.9932 142.79 44.9856C143.554 44.9761 144.316 44.9097 145.069 44.7867C145.826 44.6577 146.559 44.4185 147.244 44.077C147.926 43.7351 148.548 43.2874 149.087 42.751C149.629 42.2191 150.084 41.6063 150.433 40.9349C150.777 40.2603 151.015 39.5379 151.139 38.7926C151.266 38.0481 151.337 37.2953 151.35 36.5404C151.355 36.191 151.355 35.8526 151.355 35.5033C151.364 35.0946 151.364 34.6881 151.364 34.2728V10.7281C151.364 10.3161 151.364 9.90744 151.355 9.49985C151.355 9.15488 151.355 8.80881 151.35 8.46384C151.337 7.70895 151.266 6.95612 151.139 6.2116C151.015 5.46668 150.777 4.74468 150.433 4.07037C149.73 2.71709 148.614 1.61553 147.244 0.920609C146.559 0.580013 145.826 0.342271 145.069 0.215236C144.316 0.0912423 143.554 0.0247606 142.79 0.0163819C142.443 0.0108919 142.087 0.00429942 141.74 0.00210568C141.33 -0.000144314 140.914 1.93563e-06 140.504 1.93563e-06Z" fill="#A6A6A6"/>
<path d="M9.62264 44.0155C9.27544 44.0155 8.93662 44.0111 8.59215 44.0035C7.87854 43.9943 7.1666 43.9329 6.46216 43.82C5.80531 43.7083 5.169 43.5005 4.57422 43.2036C3.98489 42.9091 3.44737 42.5229 2.98226 42.0599C2.51042 41.6023 2.11759 41.0716 1.81934 40.4888C1.5178 39.9023 1.30912 39.2735 1.20056 38.6245C1.08333 37.9271 1.0199 37.222 1.01082 36.5151C1.0036 36.2779 0.994141 35.4879 0.994141 35.4879V9.49986C0.994141 9.49986 1.00421 8.72202 1.01088 8.4935C1.01957 7.78777 1.08263 7.08372 1.19951 6.38743C1.30827 5.73664 1.51711 5.10608 1.81881 4.51757C2.11597 3.93518 2.50662 3.40409 2.97562 2.94488C3.44409 2.48132 3.98333 2.09318 4.57366 1.79461C5.16708 1.4986 5.80219 1.29232 6.45771 1.18268C7.16446 1.06857 7.87887 1.00687 8.59495 0.998111L9.62319 0.984375H141.733L142.774 0.998662C143.484 1.00699 144.191 1.06813 144.892 1.18158C145.554 1.2926 146.196 1.50032 146.796 1.7979C147.978 2.3996 148.941 3.35155 149.548 4.52032C149.845 5.10476 150.05 5.73018 150.158 6.37535C150.276 7.07735 150.342 7.78693 150.356 8.49845C150.359 8.81705 150.359 9.15927 150.359 9.49986C150.368 9.92173 150.368 10.3233 150.368 10.7281V34.2728C150.368 34.6815 150.368 35.0803 150.359 35.4824C150.359 35.8482 150.359 36.1834 150.355 36.5283C150.341 37.2271 150.276 37.924 150.16 38.6135C150.054 39.2672 149.846 39.9008 149.545 40.4922C149.244 41.0687 148.854 41.5948 148.387 42.0511C147.922 42.5166 147.383 42.9051 146.793 43.2014C146.194 43.5007 145.553 43.7092 144.892 43.82C144.187 43.9335 143.475 43.9949 142.762 44.0035C142.428 44.0111 142.078 44.0155 141.739 44.0155L140.504 44.0177L9.62264 44.0155Z" fill="black"/>
<path d="M53.239 11.5202C53.258 11.9328 53.1932 12.345 53.0485 12.7318C52.9037 13.1186 52.6821 13.4718 52.3969 13.7702C52.0785 14.1016 51.694 14.362 51.2684 14.5345C50.8428 14.7071 50.3857 14.7878 49.9269 14.7714C49.2308 14.7659 48.5518 14.5548 47.9749 14.1643C47.3981 13.7738 46.949 13.2215 46.6841 12.5764C46.4192 11.9314 46.3501 11.2223 46.4856 10.5381C46.6211 9.85392 46.955 9.225 47.4457 8.73015C47.7681 8.40028 48.1547 8.14023 48.5815 7.96607C49.0083 7.79191 49.4662 7.70736 49.9269 7.71765C50.4015 7.71607 50.8715 7.81178 51.3079 7.9989C51.7141 8.1631 52.0758 8.4214 52.3632 8.75265L51.7682 9.3489C51.5441 9.08182 51.2611 8.87062 50.9415 8.73199C50.622 8.59337 50.2746 8.53111 49.9269 8.55015C49.5762 8.54843 49.2288 8.61768 48.9054 8.75376C48.5821 8.88984 48.2895 9.08995 48.0452 9.34208C47.801 9.59421 47.61 9.89318 47.4838 10.2211C47.3576 10.5489 47.2988 10.899 47.3109 11.2502C47.3036 11.7746 47.4514 12.2894 47.7357 12.7297C48.02 13.17 48.4281 13.5161 48.9085 13.7243C49.3889 13.9325 49.9201 13.9935 50.435 13.8995C50.9499 13.8056 51.4255 13.5609 51.8019 13.1964C52.1473 12.8213 52.3466 12.3341 52.3632 11.8239H49.9269V11.0139H53.194C53.224 11.181 53.239 11.3504 53.239 11.5202V11.5202ZM58.3811 8.70765H55.3497V10.8451H58.1116V11.6552H55.3497V13.7927H58.3811V14.6252H54.4515V7.87515H58.3811V8.70765ZM62.0636 14.6252H61.1991V8.70765H59.3129V7.87515H63.9947V8.70765H62.0636V14.6252ZM67.2956 14.6252V7.87515H68.1601V14.6252H67.2956ZM71.9998 14.6252H71.1353V8.70765H69.2491V7.87515H73.8748V8.70765H71.9998V14.6252ZM82.6433 13.7476C81.9869 14.4017 81.0989 14.7688 80.1733 14.7688C79.2477 14.7688 78.3596 14.4017 77.7033 13.7476C77.0653 13.071 76.7099 12.1754 76.7099 11.2445C76.7099 10.3137 77.0653 9.41806 77.7033 8.7414C78.0268 8.41486 78.4116 8.1557 78.8355 7.97884C79.2594 7.80199 79.7141 7.71094 80.1733 7.71094C80.6325 7.71094 81.0871 7.80199 81.5111 7.97884C81.935 8.1557 82.3198 8.41486 82.6433 8.7414C83.2838 9.41677 83.6409 10.3129 83.6409 11.2445C83.6409 12.1762 83.2838 13.0723 82.6433 13.7476ZM78.3432 13.1851C78.8293 13.6702 79.4873 13.9425 80.1733 13.9425C80.8593 13.9425 81.5173 13.6702 82.0033 13.1851C82.483 12.6553 82.7487 11.9655 82.7487 11.2502C82.7487 10.5348 82.483 9.845 82.0033 9.31515C81.5173 8.83014 80.8593 8.55783 80.1733 8.55783C79.4873 8.55783 78.8293 8.83014 78.3432 9.31515C77.8636 9.845 77.5979 10.5348 77.5979 11.2502C77.5979 11.9655 77.8636 12.6553 78.3432 13.1851V13.1851ZM84.8551 14.6252V7.87515H85.9104L89.1888 13.1289V7.87515H90.0533V14.6252H89.1552L85.7308 9.1239V14.6252H84.8551Z" fill="white" stroke="white" stroke-width="0.2" stroke-miterlimit="10"/>
<path d="M76.5023 24.4685C75.5595 24.473 74.6392 24.7572 73.8574 25.2852C73.0757 25.8133 72.4676 26.5616 72.1099 27.4356C71.7522 28.3096 71.6609 29.2703 71.8475 30.1963C72.0342 31.1222 72.4904 31.9721 73.1586 32.6385C73.8268 33.3049 74.6771 33.7581 75.602 33.9407C76.527 34.1234 77.4853 34.0274 78.3559 33.6649C79.2265 33.3023 79.9704 32.6895 80.4937 31.9037C81.017 31.118 81.2963 30.1944 81.2963 29.2498C81.3055 28.6174 81.1876 27.9897 80.9496 27.404C80.7116 26.8183 80.3585 26.2866 79.9112 25.8405C79.4638 25.3943 78.9315 25.043 78.3459 24.8073C77.7602 24.5716 77.1333 24.4564 76.5023 24.4685V24.4685ZM76.5023 32.1523C75.9225 32.1929 75.3439 32.0578 74.8417 31.7646C74.3395 31.4713 73.937 31.0335 73.6865 30.508C73.4359 29.9825 73.3489 29.3936 73.4368 28.8179C73.5247 28.2422 73.7834 27.7064 74.1793 27.2799C74.5752 26.8535 75.0899 26.5563 75.6566 26.4269C76.2233 26.2975 76.8157 26.3419 77.3569 26.5544C77.898 26.7668 78.3629 27.1375 78.691 27.6182C79.0192 28.0989 79.1954 28.6674 79.1968 29.2498C79.2149 29.6188 79.1591 29.9877 79.0326 30.3347C78.9061 30.6818 78.7116 31 78.4605 31.2705C78.2093 31.541 77.9067 31.7584 77.5704 31.9098C77.2341 32.0613 76.8709 32.1437 76.5023 32.1523ZM66.0496 24.4685C65.1064 24.4707 64.1849 24.753 63.4017 25.2798C62.6185 25.8065 62.0087 26.554 61.6492 27.4278C61.2898 28.3017 61.1969 29.2627 61.3823 30.1894C61.5677 31.1161 62.023 31.967 62.6908 32.6346C63.3586 33.3021 64.2088 33.7564 65.1341 33.94C66.0594 34.1235 67.0182 34.0282 67.8895 33.666C68.7607 33.3038 69.5053 32.6909 70.0291 31.9049C70.5529 31.1189 70.8325 30.1949 70.8325 29.2498C70.8416 28.6174 70.7237 27.9897 70.4857 27.404C70.2478 26.8183 69.8946 26.2866 69.4473 25.8405C69 25.3943 68.4677 25.043 67.882 24.8073C67.2964 24.5716 66.6694 24.4564 66.0384 24.4685H66.0496ZM66.0496 32.1523C65.4695 32.1952 64.89 32.0621 64.3864 31.7704C63.8829 31.4787 63.4787 31.0418 63.2264 30.5166C62.9741 29.9915 62.8854 29.4024 62.9719 28.826C63.0584 28.2497 63.316 27.7127 63.7113 27.2852C64.1066 26.8576 64.6212 26.5592 65.1881 26.4288C65.755 26.2983 66.348 26.3419 66.8898 26.5539C67.4317 26.7659 67.8972 27.1364 68.226 27.6172C68.5547 28.0981 68.7314 28.6669 68.733 29.2498C68.751 29.6188 68.6952 29.9877 68.5687 30.3347C68.4423 30.6818 68.2477 31 67.9966 31.2705C67.7455 31.541 67.4428 31.7584 67.1065 31.9098C66.7702 32.0613 66.407 32.1437 66.0384 32.1523H66.0496ZM53.5985 25.9423V27.9673H58.4487C58.3727 28.921 57.977 29.821 57.326 30.521C56.8408 31.0163 56.2574 31.4043 55.6135 31.66C54.9696 31.9158 54.2794 32.0336 53.5873 32.006C52.158 32.006 50.7873 31.4371 49.7766 30.4244C48.766 29.4117 48.1982 28.0382 48.1982 26.606C48.1982 25.1738 48.766 23.8003 49.7766 22.7876C50.7873 21.7749 52.158 21.206 53.5873 21.206C54.9546 21.1837 56.2749 21.7056 57.2586 22.6573L58.6845 21.2285C58.0204 20.5547 57.228 20.0213 56.3544 19.6599C55.4808 19.2985 54.5436 19.1166 53.5985 19.1248C52.6004 19.0858 51.6047 19.2492 50.6711 19.6051C49.7376 19.961 48.8853 20.5021 48.1654 21.1959C47.4454 21.8897 46.8727 22.7221 46.4815 23.643C46.0903 24.5639 45.8887 25.5545 45.8887 26.5554C45.8887 27.5563 46.0903 28.5469 46.4815 29.4678C46.8727 30.3887 47.4454 31.221 48.1654 31.9149C48.8853 32.6087 49.7376 33.1498 50.6711 33.5057C51.6047 33.8616 52.6004 34.0249 53.5985 33.986C54.5595 34.0295 55.5187 33.8663 56.4115 33.5073C57.3042 33.1483 58.1099 32.6019 58.7743 31.9048C59.9506 30.6098 60.5786 28.9075 60.5258 27.1573C60.5294 26.7309 60.4918 26.3051 60.4135 25.886L53.5985 25.9423ZM104.47 27.5173C104.177 26.6541 103.629 25.9004 102.899 25.356C102.17 24.8115 101.292 24.5021 100.383 24.4685C99.7686 24.4673 99.1608 24.5923 98.5968 24.8359C98.0328 25.0794 97.5246 25.4362 97.1037 25.8844C96.6828 26.3325 96.3581 26.8623 96.1496 27.4412C95.9412 28.02 95.8535 28.6356 95.8918 29.2498C95.8782 29.8785 95.9912 30.5036 96.224 31.0877C96.4568 31.6717 96.8048 32.2027 97.247 32.649C97.6893 33.0953 98.2168 33.4477 98.798 33.6852C99.3792 33.9226 100.002 34.0402 100.63 34.031C101.415 34.0353 102.189 33.8443 102.883 33.4752C103.576 33.1061 104.168 32.5704 104.604 31.916L102.976 30.791C102.733 31.1969 102.389 31.5326 101.978 31.7653C101.567 31.998 101.102 32.1197 100.63 32.1185C100.143 32.1371 99.6628 32.0086 99.2503 31.7498C98.8378 31.491 98.5126 31.1138 98.3169 30.6673L104.705 28.0235L104.47 27.5173ZM97.9577 29.1148C97.9349 28.7668 97.9817 28.4178 98.0952 28.0881C98.2088 27.7585 98.3868 27.4549 98.6189 27.1951C98.851 26.9352 99.1326 26.7244 99.447 26.575C99.7614 26.4256 100.102 26.3405 100.45 26.3248C100.812 26.3009 101.173 26.3841 101.489 26.5641C101.804 26.7441 102.06 27.0129 102.224 27.3373L97.9577 29.1148ZM92.7706 33.7498H94.8702V19.6873H92.7706V33.7498ZM89.3351 25.5373H89.2565C88.9401 25.1828 88.5524 24.8993 88.119 24.7054C87.6856 24.5115 87.2162 24.4116 86.7416 24.4123C85.5146 24.4719 84.3576 25.0022 83.5103 25.8934C82.663 26.7846 82.1904 27.9683 82.1904 29.1991C82.1904 30.43 82.663 31.6137 83.5103 32.5049C84.3576 33.396 85.5146 33.9264 86.7416 33.986C87.2173 33.994 87.6891 33.8975 88.1236 33.7031C88.5581 33.5087 88.9448 33.2213 89.2565 32.861H89.3239V33.5473C89.3239 35.381 88.3471 36.3598 86.7753 36.3598C86.2517 36.3475 85.7437 36.1794 85.3159 35.8769C84.888 35.5744 84.5596 35.1511 84.3726 34.661L82.5426 35.426C82.887 36.2657 83.474 36.9831 84.2282 37.4862C84.9823 37.9893 85.8693 38.2552 86.7753 38.2498C89.234 38.2498 91.2662 36.7985 91.2662 33.266V24.7498H89.3351V25.5373ZM86.9324 32.1523C86.2082 32.0883 85.5342 31.7548 85.0432 31.2176C84.5522 30.6803 84.2798 29.9783 84.2798 29.2498C84.2798 28.5213 84.5522 27.8192 85.0432 27.2819C85.5342 26.7447 86.2082 26.4112 86.9324 26.3473C87.2915 26.3657 87.6433 26.456 87.967 26.6128C88.2907 26.7696 88.5798 26.9897 88.8173 27.2602C89.0548 27.5307 89.2359 27.8461 89.3499 28.1878C89.4639 28.5294 89.5085 28.8905 89.481 29.2498C89.5117 29.6105 89.469 29.9738 89.3555 30.3176C89.242 30.6613 89.0601 30.9785 88.8208 31.2498C88.5816 31.5211 88.2898 31.741 87.9633 31.8961C87.6368 32.0512 87.2823 32.1384 86.9212 32.1523H86.9324ZM114.305 19.6873H109.286V33.7498H111.386V28.4173H114.316C114.914 28.4603 115.515 28.3794 116.081 28.1796C116.647 27.9797 117.165 27.6652 117.604 27.2557C118.043 26.8462 118.394 26.3504 118.633 25.7992C118.873 25.2481 118.996 24.6534 118.996 24.0523C118.996 23.4511 118.873 22.8565 118.633 22.3053C118.394 21.7542 118.043 21.2584 117.604 20.8488C117.165 20.4393 116.647 20.1248 116.081 19.9249C115.515 19.7251 114.914 19.6442 114.316 19.6873H114.305ZM114.305 26.4373H111.374V21.6448H114.35C114.988 21.6448 115.601 21.899 116.052 22.3516C116.504 22.8041 116.758 23.4179 116.758 24.0579C116.758 24.6979 116.504 25.3117 116.052 25.7642C115.601 26.2168 114.988 26.471 114.35 26.471L114.305 26.4373ZM127.25 24.4123C126.485 24.3665 125.724 24.5455 125.06 24.9272C124.396 25.3089 123.858 25.8768 123.511 26.561L125.375 27.3373C125.559 26.9979 125.837 26.7194 126.176 26.5356C126.515 26.3519 126.899 26.2708 127.283 26.3023C127.55 26.2711 127.82 26.2934 128.078 26.3679C128.336 26.4424 128.576 26.5676 128.785 26.7362C128.994 26.9048 129.168 27.1134 129.295 27.3499C129.423 27.5864 129.502 27.846 129.529 28.1135V28.2598C128.855 27.902 128.103 27.7165 127.34 27.7198C125.33 27.7198 123.298 28.8448 123.298 30.881C123.318 31.3152 123.424 31.741 123.611 32.1332C123.798 32.5254 124.061 32.8761 124.386 33.1645C124.71 33.453 125.089 33.6733 125.5 33.8124C125.911 33.9516 126.346 34.0068 126.778 33.9748C127.307 34.0128 127.836 33.9075 128.31 33.67C128.784 33.4325 129.186 33.0714 129.473 32.6248H129.54V33.7498H131.561V28.3385C131.561 25.8748 129.697 24.446 127.306 24.446L127.25 24.4123ZM126.992 32.1185C126.307 32.1185 125.352 31.7698 125.352 30.926C125.352 29.801 126.542 29.4298 127.598 29.4298C128.265 29.4133 128.924 29.5765 129.506 29.9023C129.436 30.5113 129.149 31.0745 128.697 31.4879C128.245 31.9014 127.659 32.1373 127.048 32.1523L126.992 32.1185ZM138.926 24.7498L136.524 30.8473H136.456L133.964 24.7498H131.718L135.457 33.2773L133.324 38.0135H135.513L141.261 24.7498H138.926ZM120.053 33.7498H122.153V19.6873H120.053V33.7498Z" fill="white"/>
<path d="M11.7217 8.48207C11.3557 8.92207 11.171 9.48534 11.2052 10.0571V34.9421C11.171 35.5138 11.3557 36.0771 11.7217 36.5171L11.8002 36.5958L25.7109 22.6683V22.3421L11.8002 8.40332L11.7217 8.48207Z" fill="url(#paint0_linear)"/>
<path d="M30.3161 27.3146L25.7129 22.6683V22.3421L30.3161 17.6846L30.4171 17.7408L35.9297 20.8796C37.5016 21.7683 37.5016 23.2308 35.9297 24.1308L30.4396 27.2583L30.3161 27.3146Z" fill="url(#paint1_linear)"/>
<path d="M30.4479 27.2465L25.7099 22.499L11.7207 36.5165C12.0411 36.7987 12.4498 36.9599 12.8762 36.9723C13.3026 36.9846 13.7199 36.8473 14.056 36.584L30.4591 27.2465" fill="url(#paint2_linear)"/>
<path d="M30.4493 17.7499L14.0462 8.41243C13.7101 8.1492 13.2928 8.01188 12.8664 8.0242C12.44 8.03653 12.0313 8.19772 11.7109 8.47993L25.7114 22.4974L30.4493 17.7499Z" fill="url(#paint3_linear)"/>
<path opacity="0.2" d="M30.3131 27.1436L14.0448 36.4248C13.7206 36.6676 13.3268 36.7989 12.922 36.7989C12.5173 36.7989 12.1234 36.6676 11.7993 36.4248L11.7207 36.5036L11.7993 36.5823C12.1227 36.8269 12.5168 36.9592 12.922 36.9592C13.3272 36.9592 13.7213 36.8269 14.0448 36.5823L30.4479 27.2448L30.3131 27.1436Z" fill="black"/>
<path opacity="0.12" d="M11.7217 36.359C11.3557 35.919 11.171 35.3558 11.2052 34.784V34.9528C11.171 35.5245 11.3557 36.0878 11.7217 36.5278L11.8002 36.449L11.7217 36.359ZM35.9277 23.9615L30.3141 27.1453L30.4151 27.2465L35.9277 24.119C36.2405 23.9718 36.509 23.7445 36.7062 23.4601C36.9033 23.1756 37.0221 22.8441 37.0505 22.499C36.9873 22.8126 36.8533 23.1074 36.6587 23.361C36.464 23.6145 36.214 23.8199 35.9277 23.9615Z" fill="black"/>
<path opacity="0.25" d="M14.0471 8.57322L35.9291 21.0382C36.2153 21.1798 36.4654 21.3852 36.66 21.6388C36.8547 21.8923 36.9887 22.1872 37.0518 22.5007C37.0234 22.1556 36.9046 21.8241 36.7075 21.5397C36.5104 21.2553 36.2419 21.028 35.9291 20.8807L14.0471 8.41572C12.4752 7.52697 11.1953 8.26947 11.1953 10.0695V10.2382C11.229 8.42697 12.4865 7.68447 14.0471 8.57322V8.57322Z" fill="white"/>
<defs>
<linearGradient id="paint0_linear" x1="24.4759" y1="9.79832" x2="5.59843" y2="28.6377" gradientUnits="userSpaceOnUse">
<stop stop-color="#00A0FF"/>
<stop offset="0.01" stop-color="#00A1FF"/>
<stop offset="0.26" stop-color="#00BEFF"/>
<stop offset="0.51" stop-color="#00D2FF"/>
<stop offset="0.76" stop-color="#00DFFF"/>
<stop offset="1" stop-color="#00E3FF"/>
</linearGradient>
<linearGradient id="paint1_linear" x1="37.9843" y1="22.4996" x2="10.8255" y2="22.4996" gradientUnits="userSpaceOnUse">
<stop stop-color="#FFE000"/>
<stop offset="0.41" stop-color="#FFBD00"/>
<stop offset="0.78" stop-color="#FFA500"/>
<stop offset="1" stop-color="#FF9C00"/>
</linearGradient>
<linearGradient id="paint2_linear" x1="27.8768" y1="25.0865" x2="2.27189" y2="50.6286" gradientUnits="userSpaceOnUse">
<stop stop-color="#FF3A44"/>
<stop offset="1" stop-color="#C31162"/>
</linearGradient>
<linearGradient id="paint3_linear" x1="8.19679" y1="0.19993" x2="19.6268" y2="11.6069" gradientUnits="userSpaceOnUse">
<stop stop-color="#32A071"/>
<stop offset="0.07" stop-color="#2DA771"/>
<stop offset="0.48" stop-color="#15CF74"/>
<stop offset="0.8" stop-color="#06E775"/>
<stop offset="1" stop-color="#00F076"/>
</linearGradient>
</defs>
</svg>
