<svg width="33" height="33" viewBox="0 0 33 33" fill="none" xmlns="http://www.w3.org/2000/svg">
<path fill-rule="evenodd" clip-rule="evenodd" d="M14.0823 6.95446C14.2343 7.08113 14.3223 7.26878 14.3223 7.46666C14.3223 8.05353 14.5532 8.61507 14.9624 9.02814C15.3713 9.44101 15.9245 9.67179 16.5 9.67179C17.0755 9.67179 17.6288 9.441 18.0377 9.02814C18.4468 8.61507 18.6778 8.05353 18.6778 7.46666C18.6778 7.26878 18.7657 7.08113 18.9177 6.95446C19.0698 6.8278 19.2702 6.77522 19.4648 6.81095L27.2871 8.24685C27.6035 8.30494 27.8334 8.58079 27.8334 8.90256V14.6461C27.8334 15.0143 27.5349 15.3128 27.1667 15.3128H23.5667V26.1333C23.5667 26.5015 23.2682 26.8 22.9 26.8H10.1C9.73184 26.8 9.43336 26.5015 9.43336 26.1333V15.3128H5.83335C5.46516 15.3128 5.16669 15.0143 5.16669 14.6461V8.90256C5.16669 8.58079 5.39651 8.30494 5.71299 8.24685L13.5352 6.81095C13.7298 6.77522 13.9303 6.8278 14.0823 6.95446ZM6.50002 9.45799V13.9795H10.1C10.4682 13.9795 10.7667 14.278 10.7667 14.6461V25.4667H22.2334V14.6461C22.2334 14.278 22.5318 13.9795 22.9 13.9795H26.5V9.45799L19.9238 8.25082C19.7786 8.89481 19.456 9.49092 18.985 9.96643C18.3271 10.6307 17.4333 11.0051 16.5 11.0051C15.5667 11.0051 14.673 10.6307 14.015 9.96643C13.5441 9.49092 13.2215 8.89481 13.0762 8.25082L6.50002 9.45799Z" fill="black"/>
</svg>
