<svg width="33" height="33" viewBox="0 0 33 33" fill="none" xmlns="http://www.w3.org/2000/svg">
<path fill-rule="evenodd" clip-rule="evenodd" d="M7.16669 4.8C7.16669 4.43181 7.46516 4.13333 7.83335 4.13333H12.6394C12.9569 4.13333 13.2303 4.35723 13.293 4.66848C13.4449 5.42366 13.8488 6.10035 14.4337 6.58517C15.0184 7.06981 15.7483 7.33338 16.5 7.33338C17.2517 7.33338 17.9817 7.06981 18.5664 6.58517C19.1513 6.10035 19.5551 5.42366 19.7071 4.66848C19.7697 4.35723 20.0432 4.13333 20.3606 4.13333H25.1667C25.5349 4.13333 25.8334 4.43181 25.8334 4.8V28.8C25.8334 29.1682 25.5349 29.4667 25.1667 29.4667H20.3606C20.0432 29.4667 19.7697 29.2428 19.7071 28.9315C19.5551 28.1763 19.1513 27.4997 18.5664 27.0148C17.9817 26.5302 17.2517 26.2666 16.5 26.2666C15.7483 26.2666 15.0184 26.5302 14.4337 27.0148C13.8488 27.4997 13.4449 28.1763 13.293 28.9315C13.2303 29.2428 12.9569 29.4667 12.6394 29.4667H7.83335C7.46516 29.4667 7.16669 29.1682 7.16669 28.8V4.8ZM8.50002 15.0667H10.9849C11.3531 15.0667 11.6515 14.7682 11.6515 14.4C11.6515 14.0318 11.3531 13.7333 10.9849 13.7333H8.50002V5.46666H12.1266C12.3999 6.30266 12.9028 7.0481 13.5828 7.6117C14.405 8.29327 15.4355 8.66671 16.5 8.66671C17.5645 8.66671 18.595 8.29327 19.4173 7.6117C20.0972 7.0481 20.6001 6.30266 20.8734 5.46666H24.5V13.7333H22.0152C21.647 13.7333 21.3485 14.0318 21.3485 14.4C21.3485 14.7682 21.647 15.0667 22.0152 15.0667H24.5V28.1333H20.8734C20.6001 27.2973 20.0972 26.5519 19.4173 25.9883C18.595 25.3067 17.5645 24.9333 16.5 24.9333C15.4355 24.9333 14.405 25.3067 13.5828 25.9883C12.9028 26.5519 12.3999 27.2973 12.1266 28.1333H8.50002V15.0667ZM15.0455 14.4C15.0455 14.0318 15.344 13.7333 15.7121 13.7333H17.2879C17.6561 13.7333 17.9546 14.0318 17.9546 14.4C17.9546 14.7682 17.6561 15.0667 17.2879 15.0667H15.7121C15.344 15.0667 15.0455 14.7682 15.0455 14.4Z" fill="black"/>
</svg>
