<svg width="33" height="33" viewBox="0 0 33 33" fill="none" xmlns="http://www.w3.org/2000/svg">
<path fill-rule="evenodd" clip-rule="evenodd" d="M19.5476 14.6317C18.8694 14.0031 18.4412 13.1005 18.4412 12.0885C18.4412 10.1626 19.9918 8.63335 21.8647 8.63335C23.7376 8.63335 25.2882 10.1626 25.2882 12.0885C25.2882 13.0952 24.8645 13.9935 24.1926 14.6217C24.0158 14.7869 23.8219 14.9334 23.6141 15.0583C23.1302 15.349 22.5705 15.5226 21.9754 15.5418C21.9425 15.5428 21.9095 15.5434 21.8764 15.5435C21.8725 15.5435 21.8686 15.5435 21.8647 15.5435C21.8551 15.5435 21.8455 15.5435 21.8359 15.5434C21.8104 15.5432 21.785 15.5427 21.7596 15.5419C21.1644 15.5237 20.6045 15.3511 20.1201 15.0612C19.9147 14.9382 19.7228 14.7941 19.5476 14.6317ZM17.323 11.2198C17.7285 9.0938 19.5942 7.46664 21.8647 7.46664C24.4361 7.46664 26.4882 9.55355 26.4882 12.0885C26.4882 12.8315 26.3119 13.536 25.9979 14.1608C25.82 14.5147 25.5979 14.843 25.3387 15.1382C25.0209 15.5001 24.6471 15.8123 24.2305 16.0609C24.6744 16.2611 25.094 16.5134 25.4834 16.8076C25.8016 17.048 26.0997 17.3162 26.3747 17.6067C26.4415 17.6773 26.507 17.7492 26.5711 17.8224C26.5745 17.8263 26.5779 17.8302 26.5813 17.834C27.3585 18.7253 27.9433 19.8153 28.2526 20.9845C28.4136 21.593 28.5 22.2231 28.5 22.8577C28.5 23.0232 28.4291 23.1727 28.3151 23.2788C28.2073 23.3793 28.0611 23.441 27.9 23.441C27.5686 23.441 27.3 23.1798 27.3 22.8577C27.3 22.2791 27.2141 21.7021 27.0548 21.1461C26.9561 20.8015 26.8291 20.4649 26.6768 20.1411C26.4137 19.5815 26.0751 19.0599 25.6761 18.6002C25.6727 18.5963 25.6693 18.5924 25.666 18.5886C25.2835 18.15 24.8514 17.7738 24.3838 17.4758C24.1747 17.3426 23.9586 17.225 23.7365 17.1245C23.1706 16.8682 22.5666 16.7226 21.9452 16.711C21.9214 16.7106 21.8976 16.7103 21.8738 16.7103C21.8708 16.7104 21.8677 16.7105 21.8647 16.7106C21.8406 16.7114 21.8165 16.7123 21.7925 16.7135C21.1686 16.743 20.5554 16.8861 19.9825 17.1354C19.8806 17.1798 19.78 17.2275 19.6808 17.2785C19.677 17.2805 19.6731 17.2825 19.6693 17.2845C19.5563 17.343 19.4456 17.4055 19.3375 17.4721C19.285 17.5044 19.2331 17.5376 19.1817 17.5718C18.704 17.8898 18.2801 18.2866 17.9289 18.7474C17.9259 18.7514 17.9228 18.7553 17.9197 18.7592C17.8746 18.8154 17.8208 18.8615 17.7616 18.897C17.5589 19.0182 17.2925 19.0149 17.0896 18.8688C17.066 18.8518 17.0441 18.8334 17.0238 18.8138C16.8209 18.6182 16.7867 18.3055 16.9511 18.0714C16.9555 18.0652 16.9601 18.0589 16.9648 18.0528C16.9678 18.0488 16.9708 18.0449 16.9739 18.0409C17.0911 17.8878 17.215 17.7404 17.3452 17.599C17.5224 17.4065 17.7111 17.2252 17.9102 17.0562C18.0154 16.9669 18.1235 16.881 18.2343 16.7987C18.272 16.7707 18.31 16.7431 18.3483 16.7159C18.5932 16.5422 18.8508 16.3855 19.1195 16.2473C19.1233 16.2453 19.1272 16.2434 19.131 16.2414C19.254 16.1784 19.3789 16.1195 19.5054 16.0648C19.2269 15.8993 18.9675 15.7053 18.7311 15.4871C18.7215 15.4782 18.7118 15.4692 18.7022 15.4602C18.5927 15.3574 18.4883 15.2494 18.3893 15.1366C18.3526 15.0948 18.3167 15.0523 18.2815 15.0092C18.2209 14.9349 18.1626 14.8587 18.1066 14.7808C17.9655 14.5841 17.8395 14.376 17.7302 14.1582C17.417 13.534 17.2412 12.8304 17.2412 12.0885C17.2412 11.7919 17.2693 11.5014 17.323 11.2198ZM25.2176 23.441C25.549 23.441 25.8176 23.1798 25.8176 22.8577C25.8176 22.5355 25.549 22.2743 25.2176 22.2743H23.1353V20.1654C23.1353 19.8432 22.8667 19.582 22.5353 19.582C22.2039 19.582 21.9353 19.8432 21.9353 20.1654V22.2743H19.8529C19.8121 22.2743 19.7722 22.2783 19.7336 22.2858C19.4594 22.3397 19.2529 22.5752 19.2529 22.8577C19.2529 23.1798 19.5216 23.441 19.8529 23.441H21.9353V25.55C21.9353 25.8721 22.2039 26.1333 22.5353 26.1333C22.8667 26.1333 23.1353 25.8721 23.1353 25.55V23.441H25.2176ZM15.6453 20.299C15.3703 20.0085 15.0722 19.7403 14.754 19.4999C14.6556 19.4256 14.5552 19.3539 14.4531 19.2851C14.1509 19.0815 13.8328 18.9028 13.5011 18.7532C13.8024 18.5734 14.0813 18.3604 14.3329 18.1193C14.4291 18.027 14.5213 17.9307 14.6093 17.8305C14.8685 17.5353 15.0906 17.207 15.2685 16.8531C15.2752 16.8397 15.2819 16.8263 15.2885 16.8128C15.4553 16.4728 15.5815 16.1096 15.6609 15.7299C15.6664 15.7037 15.6717 15.6774 15.6767 15.6511C15.7306 15.3689 15.7588 15.0779 15.7588 14.7808C15.7588 13.7798 15.4389 12.8488 14.8934 12.0885C14.8374 12.0105 14.7791 11.9343 14.7185 11.86C13.8736 10.8243 12.5872 10.1589 11.1353 10.1589C8.56392 10.1589 6.51176 12.2459 6.51176 14.7808C6.51176 15.5238 6.68808 16.2283 7.0021 16.8531C7.17999 17.207 7.40206 17.5353 7.66131 17.8305C7.97915 18.1924 8.35286 18.5046 8.76951 18.7532C8.32557 18.9534 7.90604 19.2058 7.51657 19.4999C7.1984 19.7403 6.90029 20.0085 6.62531 20.299C6.55846 20.3696 6.49298 20.4415 6.4289 20.5147C6.42551 20.5186 6.42213 20.5225 6.41875 20.5263C5.38568 21.7109 4.69249 23.2468 4.53442 24.8529C4.51167 25.0841 4.5 25.3167 4.5 25.55C4.5 25.8721 4.76863 26.1333 5.10001 26.1333H17.1706C17.502 26.1333 17.7706 25.8721 17.7706 25.55C17.7706 25.4125 17.7665 25.2752 17.7586 25.1383C17.753 25.043 17.7455 24.9478 17.7362 24.8529C17.6687 24.1678 17.5039 23.4954 17.2569 22.8577C17.1405 22.5572 17.0059 22.2645 16.8546 21.9817C16.7319 21.7521 16.5981 21.5291 16.4542 21.3139C16.2706 21.0395 16.0706 20.7776 15.8559 20.531C15.8546 20.5294 15.8532 20.5279 15.8518 20.5263C15.8485 20.5225 15.8451 20.5186 15.8417 20.5147C15.7776 20.4415 15.7121 20.3696 15.6453 20.299ZM13.6544 20.1681C14.122 20.4661 14.5541 20.8423 14.9366 21.2809C14.9399 21.2847 14.9433 21.2886 14.9467 21.2925C15.2598 21.6533 15.5358 22.0522 15.7673 22.4777C15.9692 22.849 16.1373 23.2404 16.2666 23.6444C16.2872 23.7088 16.3068 23.7734 16.3254 23.8384C16.4311 24.2071 16.5044 24.5851 16.5418 24.9666H5.72876C5.76617 24.5851 5.83951 24.2071 5.94516 23.8384C5.96377 23.7734 5.98338 23.7088 6.00398 23.6444C6.13329 23.2404 6.30137 22.849 6.50334 22.4777C6.7348 22.0522 7.01076 21.6533 7.32391 21.2925C7.32729 21.2886 7.33066 21.2847 7.33404 21.2809C7.71654 20.8423 8.14858 20.4661 8.61619 20.1681C8.82526 20.0349 9.04144 19.9173 9.26349 19.8168C9.8317 19.5595 10.4383 19.4137 11.0624 19.4032C11.0866 19.4028 11.111 19.4026 11.1353 19.4026C11.1596 19.4026 11.184 19.4028 11.2082 19.4032C11.8323 19.4137 12.4389 19.5595 13.0071 19.8168C13.2292 19.9173 13.4453 20.0349 13.6544 20.1681ZM8.80744 17.314C8.98416 17.4792 9.17805 17.6257 9.38592 17.7506C9.87135 18.0422 10.433 18.2159 11.0302 18.2342C11.0651 18.2353 11.1002 18.2359 11.1353 18.2359C11.1704 18.2359 11.2055 18.2353 11.2404 18.2342C11.8376 18.2159 12.3992 18.0422 12.8847 17.7506C13.0925 17.6257 13.2864 17.4792 13.4632 17.314C14.1351 16.6858 14.5588 15.7874 14.5588 14.7808C14.5588 12.8549 13.0082 11.3257 11.1353 11.3257C9.26241 11.3257 7.71178 12.8549 7.71178 14.7808C7.71178 15.7874 8.13548 16.6858 8.80744 17.314Z" fill="black"/>
</svg>
